
        <svg xmlns="http://www.w3.org/2000/svg" xmlns:xlink="http://www.w3.org/1999/xlink" version="1.1" width="3193.671287966981" 
        height="1067.034103427299" viewBox="0 0 3193.671287966981 1067.034103427299">
			
			<g transform="scale(9.683564398349032) translate(10, 10)">
				<defs id="SvgjsDefs1689"></defs><g id="SvgjsG1690" featureKey="S6ay6y-0" transform="matrix(-37.716852711869784,0,0,37.716852711869784,309.80327868852453,50.999670919669484)" fill="#6eb6e1"><defs xmlns="http://www.w3.org/2000/svg"></defs><g xmlns="http://www.w3.org/2000/svg"><path class="fil0" d="M0.636937 0.114185l-0.00427262 -0.00202387c0.00134925,0.000562186 0.00277005,0.00124703 0.00427262,0.00202387zm-0.636937 0.853246c0.226357,-0.144042 0.694351,-0.44102 0.497596,-0.761211 -0.242773,-0.395064 -0.412338,0.264524 -0.164629,0.16379 0.0700587,-0.0284875 0.128219,-0.140557 0.0565866,-0.181699 0.0233665,-0.0134516 0.0451896,0.0252779 0.0492475,0.0451691 0.0533873,0.261693 -0.386069,0.224997 -0.272047,-0.0780621 0.133933,-0.355946 0.658882,0.0769787 0.342791,0.465603 -0.194169,0.175678 -0.267141,0.256091 -0.509545,0.346409zm0.632664 -0.85527c0.00146168,0.000654181 0.0028416,0.00135947 0.00427262,0.00202387 0.00698133,0.00320957 0.0137889,0.00656225 0.0204431,0.0100376 0.0305216,0.0159048 0.0577314,0.034416 0.0823245,0.0549307 0.246892,0.205995 0.231876,0.610095 0.702273,0.526636l0.0752512 -0.0078195c-0.0432884,0.0267192 -0.0798203,0.0525491 -0.126676,0.0686583 -0.423541,0.145719 -0.546721,-0.41288 -0.757889,-0.654467zm-0.246033 -0.0966654c0.299431,-0.0757725 0.695936,0.137807 0.87373,0.39444 0.276892,0.399684 0.267764,-0.0365523 0.377503,0.161439 0.138461,0.249795 0.391558,0.117405 0.406318,0.139524 0.117507,0.176199 0.18912,0.175392 0.38983,0.206742 -0.189815,0.00651114 -0.302559,-0.0246749 -0.410345,-0.181218 -0.221256,0.070815 -0.314538,0.00789105 -0.437493,-0.16701 -0.0747197,0.0428693 -0.124018,0.0676975 -0.16929,0.0616054 -0.0327499,-0.00441572 -0.0634044,-0.0250531 -0.100039,-0.0667673 -0.0274654,-0.0312678 -0.0582834,-0.0743722 -0.0958988,-0.131419 -0.175985,-0.266936 -0.518428,-0.436073 -0.834315,-0.417337zm0.556513 0.954869l0.00955717 -0.0565151 0.0114993 -0.0439834c0.337751,0.00671557 0.282555,0.043779 0.583979,-0.0099967l0.0305625 -0.0037411c-0.034876,0.0239185 -0.0162932,0.0134005 -0.0559427,0.0311247l0.00195232 -0.000449749c-0.20297,0.0848799 -0.314824,0.0502288 -0.537215,-0.00390464 -0.023203,0.0552067 -0.00903587,0.025697 -0.0443923,0.087466zm-0.123017 -0.00879055c0.114011,-0.19931 0.0372678,-0.338518 0.134823,-0.230783 0.102778,0.113511 0.389595,0.13748 0.553713,0.0290395 0.157126,-0.103831 0.0604197,0.00299492 0.44149,0.108952l0.0210769 0.00785017c-0.209573,0.00866789 -0.261928,-0.0801371 -0.38753,-0.122812l-0.0507092 0.0402014c-0.196111,0.141845 -0.522486,0.0841849 -0.611138,-0.0555134 -0.0243784,0.063895 -0.0476734,0.191051 -0.101725,0.223065zm0.757378 -0.209798l-0.000235096 -7.1551e-005 -2.04431e-005 3.06647e-005 0.000255539 4.08863e-005zm-0.833538 0.189293c0.0324126,-0.12873 0.0585185,-0.260384 0.0937318,-0.386621 0.0346102,0.183365 6.13294e-005,0.231079 -0.0937318,0.386621zm-0.12595 -0.00292337c0.0860247,-0.199576 0.110209,-0.267601 0.17575,-0.468639 0.0497791,0.179399 -0.0710093,0.342443 -0.17575,0.468639zm-0.181596 0.0205045c0.0426035,-0.0593158 0.108502,-0.149726 0.154611,-0.209 0.0505559,-0.107909 0.179828,-0.353002 0.126574,-0.47932 0.00594895,-0.00278027 0.0113357,0.00407841 0.0140342,0.00869856 0.107694,0.185051 -0.108328,0.55912 -0.295219,0.679622zm-0.114226 -0.00879055c0.18084,-0.27954 0.423173,-0.485382 0.237253,-0.828908l0.00779906 0.00205454 0.0079115 0.0063987c0.278804,0.262408 -0.080178,0.644961 -0.252963,0.820455zm0.187351 -0.328838c-0.00134925,0.00164567 -0.00257584,0.00330157 -0.00394553,0.00494724l0.00638848 -0.00716532 -0.00244296 0.00221808z" style="fill: #6eb6e1;"></path></g></g><g id="SvgjsG1691" featureKey="j5pGhi-0" transform="matrix(3.9579481734112627,0,0,3.9579481734112627,-0.47495144056136995,-19.314787539198186)" fill="#6eb6e1"><path d="M7.94 5.84 l6.02 14.16 l-1.96 0 l-1.44 -3.48 l-7.08 0 l-1.46 3.48 l-1.9 0 l6.24 -14.16 l1.58 0 z M7.08 8 l-2.94 6.96 l5.78 0 l-2.8 -6.96 l-0.04 0 z M20.727 10.4 q2.08 0 3.25 1.31 t1.19 3.71 l0 0.38 l-7.56 0 q0.12 1.3 0.98 2.14 t2.1 0.86 q1.9 0 2.96 -1.42 l1.18 0.92 q-0.74 0.96 -1.74 1.45 t-2.4 0.49 q-2.14 0 -3.44 -1.39 t-1.32 -3.53 q0 -2.12 1.33 -3.5 t3.47 -1.42 z M23.487000000000002 14.48 q-0.06 -1.22 -0.79 -1.93 t-2.05 -0.71 q-1.2 0 -2.02 0.68 t-1.02 1.96 l5.88 0 z M32.954 10.4 q2.18 0 3.56 1.35 t1.44 3.57 q0 2.14 -1.4 3.51 t-3.6 1.41 q-2.2 0 -3.58 -1.39 t-1.42 -3.53 q0 -2.16 1.4 -3.53 t3.6 -1.39 z M29.634000000000004 15.32 q0 1.54 0.93 2.49 t2.39 0.99 q1.46 0 2.38 -0.97 t0.94 -2.51 q0 -1.52 -0.93 -2.5 t-2.41 -0.98 q-1.44 0 -2.36 0.97 t-0.94 2.51 z M42.981 4.880000000000001 l0 15.12 l-1.56 0 l0 -15.12 l1.56 0 z M48.548 10.64 l0 5.68 q0 1.08 0.51 1.77 t1.63 0.71 q1.44 0 2.17 -0.96 t0.73 -2.56 l0 -4.64 l1.56 0 l0 7.28 q0.02 0.56 0.08 2.08 l-1.48 0 q-0.02 -0.96 -0.04 -1.54 l-0.04 0 q-0.36 0.78 -1.21 1.28 t-1.93 0.5 q-1.72 -0.02 -2.63 -1.03 t-0.91 -2.71 l0 -5.86 l1.56 0 z M61.875 10.4 q2.24 0.02 3.18 1.7 l-1.3 0.86 q-0.68 -1.12 -1.98 -1.12 q-0.78 0 -1.31 0.36 t-0.53 0.94 q0 0.94 2.34 1.36 q1.68 0.3 2.38 0.98 t0.7 1.82 q0 1.38 -1.02 2.16 t-2.72 0.78 q-1.32 0 -2.17 -0.42 t-1.47 -1.32 l1.24 -0.96 q0.58 0.7 1.14 0.98 t1.26 0.28 q0.9 0 1.48 -0.39 t0.58 -1.05 q0 -0.68 -0.61 -1.02 t-2.03 -0.62 q-1.4 -0.3 -2.03 -0.9 t-0.63 -1.66 q0 -1.18 0.97 -1.96 t2.53 -0.8 z"></path></g><g id="SvgjsG1692" featureKey="sloganFeature-0" transform="matrix(1.2846199847374133,0,0,1.2846199847374133,59.8458457488446,64.49782154333423)" fill="#6eb6e1"><path d="M1.98 5.84 l3.22 11.76 l0.04 0 l3.48 -11.76 l1.88 0 l3.46 11.76 l0.04 0 l3.28 -11.76 l1.76 0 l-4.16 14.16 l-1.82 0 l-3.5 -12 l-0.04 0 l-3.52 12 l-1.84 0 l-4.14 -14.16 l1.86 0 z M33.548 5.84 l0 1.56 l-7.22 0 l0 4.44 l6.74 0 l0 1.56 l-6.74 0 l0 5.04 l7.58 0 l0 1.56 l-9.26 0 l0 -14.16 l8.9 0 z M46.316 5.84 l6.02 14.16 l-1.96 0 l-1.44 -3.48 l-7.08 0 l-1.46 3.48 l-1.9 0 l6.24 -14.16 l1.58 0 z M45.456 8 l-2.94 6.96 l5.78 0 l-2.8 -6.96 l-0.04 0 z M67.34400000000001 5.84 l0 1.56 l-4.68 0 l0 12.6 l-1.68 0 l0 -12.6 l-4.68 0 l0 -1.56 l11.04 0 z M74.632 5.84 l0 6 l7.56 0 l0 -6 l1.68 0 l0 14.16 l-1.68 0 l0 -6.6 l-7.56 0 l0 6.6 l-1.68 0 l0 -14.16 l1.68 0 z M99.92 5.84 l0 1.56 l-7.22 0 l0 4.44 l6.74 0 l0 1.56 l-6.74 0 l0 5.04 l7.58 0 l0 1.56 l-9.26 0 l0 -14.16 l8.9 0 z M110.36800000000001 5.84 q2.78 0 4.09 0.92 t1.31 2.96 q0 1.5 -0.89 2.47 t-2.65 1.29 l4.02 6.52 l-2.06 0 l-3.84 -6.36 l-2.16 0 l0 6.36 l-1.68 0 l0 -14.16 l3.86 0 z M110.188 12.08 q1.98 0 2.88 -0.55 t0.9 -1.79 q0 -1.2 -0.81 -1.77 t-2.51 -0.57 l-2.46 0 l0 4.68 l2 0 z"></path></g>
			</g>
		</svg>
	